<svg xmlns="http://www.w3.org/2000/svg" width="20.192" height="25" viewBox="0 0 20.192 25"><path class="a" d="M18.688,3.375H11.506A2.4,2.4,0,0,0,9.072,5.749V6.26H8.621A2.4,2.4,0,0,0,6.188,8.633V25.941a2.455,2.455,0,0,0,2.434,2.434h12.5A2.4,2.4,0,0,0,23.5,25.941V25.49h.511a2.4,2.4,0,0,0,2.374-2.434V11.067Zm0,2.68L23.7,11.067H18.688Zm2.885,19.886a.485.485,0,0,1-.451.511H8.621a.535.535,0,0,1-.511-.511V8.633a.485.485,0,0,1,.511-.451h.451V23.537a1.706,1.706,0,0,0,1.953,1.953H21.572Zm2.885-2.885a.485.485,0,0,1-.451.511h-12.5A.535.535,0,0,1,11,23.056V5.749a.485.485,0,0,1,.511-.451h5.258V12.99h7.692Z" transform="translate(-6.188 -3.375)"/></svg>
