<svg xmlns="http://www.w3.org/2000/svg" width="19.61" height="19.615" viewBox="0 0 19.61 19.615"><path class="a" d="M22.491,14.3a2.523,2.523,0,0,1,1.619-2.354A10,10,0,0,0,22.9,9.035a2.557,2.557,0,0,1-1.026.22,2.518,2.518,0,0,1-2.3-3.544A9.972,9.972,0,0,0,16.659,4.5a2.521,2.521,0,0,1-4.708,0A10,10,0,0,0,9.035,5.71a2.518,2.518,0,0,1-2.3,3.544,2.474,2.474,0,0,1-1.026-.22A10.223,10.223,0,0,0,4.5,11.956a2.523,2.523,0,0,1,.005,4.708,10,10,0,0,0,1.21,2.916A2.519,2.519,0,0,1,9.04,22.9a10.061,10.061,0,0,0,2.916,1.21,2.517,2.517,0,0,1,4.7,0A10,10,0,0,0,19.57,22.9a2.521,2.521,0,0,1,3.324-3.325,10.061,10.061,0,0,0,1.21-2.916A2.535,2.535,0,0,1,22.491,14.3Zm-8.14,4.08A4.085,4.085,0,1,1,18.436,14.3,4.084,4.084,0,0,1,14.351,18.385Z" transform="translate(-4.5 -4.5)"/></svg>
