<svg xmlns="http://www.w3.org/2000/svg" width="315.346" height="38.253" viewBox="0 0 315.346 38.253">
  <g id="Gruppe_62" data-name="Gruppe 62" transform="translate(-572.359 -227.23)">
    <g id="Gruppe_60" data-name="Gruppe 60" transform="translate(827.705 234.652)">
      <path id="Pfad_106" data-name="Pfad 106" d="M791.34,251.675V236.408h5.887c2.407,0,3.6,1.076,3.6,3.1v1.765a2.4,2.4,0,0,1-1.741,2.545,2.551,2.551,0,0,1,2.244,2.75V248.4c0,2.132-1.489,3.28-3.778,3.28H791.34Zm7.513-12.127c0-.986-.549-1.443-1.741-1.443h-3.8v4.953h3.481c1.489,0,2.062-.688,2.062-1.789Zm.5,7.085c0-1.217-.688-1.881-2.2-1.881h-3.848v5.228h3.964c1.4,0,2.084-.6,2.084-1.741Z" transform="translate(-772.613 -232.566)" fill="#0e1a1e"/>
      <path id="Pfad_107" data-name="Pfad 107" d="M811.959,251.676h-1.994l-1.258-3.67h-6.486l-1.235,3.67h-1.994l5.155-15.27H806.8Zm-6.484-13.848-2.725,8.46H808.2Z" transform="translate(-768.714 -232.567)" fill="#0e1a1e"/>
      <path id="Pfad_108" data-name="Pfad 108" d="M811.049,239.295l-.3,12.38h-1.9l.528-15.267h2.5l4.4,11.807,4.4-11.807h2.5l.528,15.267h-1.9l-.3-12.38L817.6,249.7h-2.657Z" transform="translate(-763.692 -232.566)" fill="#0e1a1e"/>
      <g id="Gruppe_59" data-name="Gruppe 59">
        <path id="Pfad_109" data-name="Pfad 109" d="M778.972,245.781v-3.757l12.968-4.911v3.757Z" transform="translate(-778.912 -232.203)" fill="#770c0f"/>
        <path id="Pfad_110" data-name="Pfad 110" d="M778.972,233.861v3.757l12.968,4.911v-3.757Z" transform="translate(-778.912 -233.861)" fill="#c90013"/>
        <path id="Pfad_111" data-name="Pfad 111" d="M778.972,244.126l12.968,4.911V245.28l-12.968-4.911Z" transform="translate(-778.912 -230.544)" fill="#004257"/>
        <path id="Pfad_112" data-name="Pfad 112" d="M778.972,248.536v3.757l12.968-4.911v-3.757Z" transform="translate(-778.912 -228.884)" fill="#008cd0"/>
        <path id="Pfad_113" data-name="Pfad 113" d="M778.932,240.371v3.757l4.959-1.878Z" transform="translate(-778.932 -230.545)" fill="#0b1a26"/>
      </g>
    </g>
    <g id="Gruppe_61" data-name="Gruppe 61" transform="translate(572.359 228.512)">
      <path id="Pfad_114" data-name="Pfad 114" d="M578.445,228.684H584.9l-6.087,34.646h-6.45Z" transform="translate(-572.359 -228.163)" fill="#0b1a26"/>
      <path id="Pfad_115" data-name="Pfad 115" d="M593.833,237.631l-4.526,25.7h-6.3l6.087-34.646h8.064l8.583,26.375,4.63-26.375h6.243l-6.087,34.646h-8.115Z" transform="translate(-569.8 -228.163)" fill="#0b1a26"/>
      <path id="Pfad_116" data-name="Pfad 116" d="M621.791,263.951a16.269,16.269,0,0,1-4.812-.624,9.473,9.473,0,0,1-3.329-1.742,6.782,6.782,0,0,1-1.952-2.653,8.837,8.837,0,0,1-.624-3.356q0-.675.052-1.223a6.418,6.418,0,0,1,.156-.962l2.653-15.034a15.178,15.178,0,0,1,1.508-4.682,8.988,8.988,0,0,1,2.732-3.122,11.346,11.346,0,0,1,4.058-1.742,24.813,24.813,0,0,1,5.54-.547,30.214,30.214,0,0,1,4.734.365,45.98,45.98,0,0,1,4.63.988l-1.353,5.514q-2.08-.415-4.447-.728a32.428,32.428,0,0,0-4.187-.313,14.694,14.694,0,0,0-2.836.234,5.111,5.111,0,0,0-2,.832,4.134,4.134,0,0,0-1.326,1.666,11.654,11.654,0,0,0-.806,2.73l-2.289,12.954a8.589,8.589,0,0,0-.156.962,8.734,8.734,0,0,0-.052.91,3.355,3.355,0,0,0,1.171,2.861,6.887,6.887,0,0,0,4.032.884q1.819,0,4.162-.233t4.578-.651l.208,5.514a33.493,33.493,0,0,1-4.761.884A44.641,44.641,0,0,1,621.791,263.951Z" transform="translate(-563.06 -228.264)" fill="#0b1a26"/>
      <path id="Pfad_117" data-name="Pfad 117" d="M637.253,228.684h6.45l-5.1,28.976h14.306l-.988,5.67H631.166Z" transform="translate(-558.233 -228.163)" fill="#0b1a26"/>
      <path id="Pfad_118" data-name="Pfad 118" d="M662.641,263.85a16.981,16.981,0,0,1-5.1-.676,10.072,10.072,0,0,1-3.538-1.873,7.29,7.29,0,0,1-2.055-2.757,8.694,8.694,0,0,1-.65-3.382,11.374,11.374,0,0,1,.156-1.873l4.317-24.606h6.451l-4.214,24.034a10.5,10.5,0,0,0-.156,1.716,3.4,3.4,0,0,0,1.171,2.783q1.17.964,4.344.962a11.429,11.429,0,0,0,3.224-.389,5.664,5.664,0,0,0,2.133-1.119A4.88,4.88,0,0,0,670,254.929a9.6,9.6,0,0,0,.651-2.263l4.214-23.982h6.45L677,253.342a20.52,20.52,0,0,1-1.223,4.11,9.163,9.163,0,0,1-2.418,3.355,11.272,11.272,0,0,1-4.214,2.237A22.312,22.312,0,0,1,662.641,263.85Z" transform="translate(-553.397 -228.163)" fill="#0b1a26"/>
      <path id="Pfad_119" data-name="Pfad 119" d="M685.478,263.951q-1.092,0-2.444-.13a26.709,26.709,0,0,1-2.757-.415q-1.406-.286-2.732-.676a16.479,16.479,0,0,1-2.418-.91l1.4-5q2.5.731,4.734,1.2a22.777,22.777,0,0,0,4.683.469,17.122,17.122,0,0,0,2.964-.208,4.17,4.17,0,0,0,1.822-.728,2.969,2.969,0,0,0,.987-1.379,15.082,15.082,0,0,0,.573-2.158,13.654,13.654,0,0,0,.26-2.185,2.328,2.328,0,0,0-.26-1.145,2.132,2.132,0,0,0-.884-.806,9.651,9.651,0,0,0-1.744-.676q-1.118-.339-2.834-.807a19.182,19.182,0,0,1-3.771-1.3,8.562,8.562,0,0,1-2.394-1.664,5.255,5.255,0,0,1-1.275-2.081,8.374,8.374,0,0,1-.363-2.55,13.38,13.38,0,0,1,.1-1.638q.1-.858.259-1.795a19.478,19.478,0,0,1,1.249-4.473,6.864,6.864,0,0,1,2.185-2.81,8.477,8.477,0,0,1,3.641-1.43,33.924,33.924,0,0,1,5.67-.391,37.126,37.126,0,0,1,4.76.313,32.288,32.288,0,0,1,4.916,1.041l-1.093,5.358q-2.5-.571-4.708-.884a31.375,31.375,0,0,0-4.4-.311,19.95,19.95,0,0,0-2.783.155,4.117,4.117,0,0,0-1.692.573,2.659,2.659,0,0,0-.962,1.222,9.339,9.339,0,0,0-.546,2.055,13.671,13.671,0,0,0-.26,2.185,2.411,2.411,0,0,0,.233,1.093,2.089,2.089,0,0,0,.856.832,9.4,9.4,0,0,0,1.684.728q1.062.365,2.721.781a31.326,31.326,0,0,1,3.887,1.274,8.873,8.873,0,0,1,2.513,1.509,4.737,4.737,0,0,1,1.348,1.951,7.45,7.45,0,0,1,.388,2.5,12.567,12.567,0,0,1-.1,1.56q-.1.833-.26,1.822a24.244,24.244,0,0,1-1.192,4.526,7.421,7.421,0,0,1-2.151,3.069,9.155,9.155,0,0,1-3.756,1.769A26.254,26.254,0,0,1,685.478,263.951Z" transform="translate(-547.674 -228.264)" fill="#0b1a26"/>
      <path id="Pfad_120" data-name="Pfad 120" d="M703.149,228.684H709.6l-6.087,34.646h-6.45Z" transform="translate(-542.405 -228.163)" fill="#0b1a26"/>
      <path id="Pfad_121" data-name="Pfad 121" d="M717.654,243.561H731.44l-.988,5.671H716.665l-2.5,14.1h-6.452l6.139-34.646h21.329l-.988,5.67H719.266Z" transform="translate(-539.846 -228.163)" fill="#0b1a26"/>
      <path id="Pfad_122" data-name="Pfad 122" d="M741.97,263.33h-6.45l1.821-10.352-6.763-24.294h6.4l4.63,17.531,10.4-17.531h7.284L743.739,253.29Z" transform="translate(-534.355 -228.163)" fill="#0b1a26"/>
    </g>
    <rect id="Rechteck_427" data-name="Rechteck 427" width="0.494" height="38.253" transform="translate(812.254 227.23)" fill="#0b1a26"/>
  </g>
</svg>
