<svg id="Gruppe_57" data-name="Gruppe 57" xmlns="http://www.w3.org/2000/svg" width="237.208" height="37.632" viewBox="0 0 237.208 37.632">
  <path id="Pfad_95" data-name="Pfad 95" d="M80.848,587.4h6.8l-6.419,36.536h-6.8Z" transform="translate(-74.429 -586.848)" fill="#0b1a26"/>
  <path id="Pfad_96" data-name="Pfad 96" d="M101.079,596.833l-4.772,27.1H89.668L96.087,587.4h8.5l9.052,27.814,4.882-27.814h6.584l-6.419,36.536h-8.558Z" transform="translate(-75.735 -586.848)" fill="#0b1a26"/>
  <path id="Pfad_97" data-name="Pfad 97" d="M141.109,624.429a17.144,17.144,0,0,1-5.074-.658,9.955,9.955,0,0,1-3.511-1.838,7.132,7.132,0,0,1-2.057-2.8,9.3,9.3,0,0,1-.658-3.538c0-.475.018-.906.055-1.289a6.723,6.723,0,0,1,.165-1.016l2.8-15.854a15.968,15.968,0,0,1,1.591-4.937,9.486,9.486,0,0,1,2.88-3.292,11.974,11.974,0,0,1,4.279-1.837,26.2,26.2,0,0,1,5.842-.576,31.748,31.748,0,0,1,4.992.384,48.6,48.6,0,0,1,4.882,1.041l-1.426,5.816q-2.2-.44-4.69-.769a34.423,34.423,0,0,0-4.416-.329,15.5,15.5,0,0,0-2.99.247,5.4,5.4,0,0,0-2.112.878,4.368,4.368,0,0,0-1.4,1.756,12.34,12.34,0,0,0-.85,2.88l-2.414,13.661a8.588,8.588,0,0,0-.165,1.014,9.247,9.247,0,0,0-.055.96,3.539,3.539,0,0,0,1.234,3.018,7.268,7.268,0,0,0,4.252.932q1.92,0,4.389-.246t4.828-.686l.219,5.814a35.86,35.86,0,0,1-5.02.934A47.157,47.157,0,0,1,141.109,624.429Z" transform="translate(-79.174 -586.797)" fill="#0b1a26"/>
  <path id="Pfad_98" data-name="Pfad 98" d="M164.966,587.4h6.8l-5.376,30.557h15.086l-1.041,5.98h-21.89Z" transform="translate(-81.636 -586.848)" fill="#0b1a26"/>
  <path id="Pfad_99" data-name="Pfad 99" d="M199.307,624.481a17.933,17.933,0,0,1-5.377-.712,10.606,10.606,0,0,1-3.729-1.976,7.672,7.672,0,0,1-2.167-2.907,9.163,9.163,0,0,1-.686-3.567,12,12,0,0,1,.165-1.975l4.552-25.948h6.8l-4.444,25.345a11.184,11.184,0,0,0-.164,1.811,3.582,3.582,0,0,0,1.233,2.934q1.236,1.016,4.582,1.015a12.047,12.047,0,0,0,3.4-.411,5.994,5.994,0,0,0,2.249-1.179,5.145,5.145,0,0,0,1.343-1.839,10.107,10.107,0,0,0,.686-2.386L212.2,587.4H219l-4.553,26a21.735,21.735,0,0,1-1.289,4.333,9.7,9.7,0,0,1-2.552,3.538,11.893,11.893,0,0,1-4.443,2.359A23.516,23.516,0,0,1,199.307,624.481Z" transform="translate(-84.104 -586.848)" fill="#0b1a26"/>
  <path id="Pfad_100" data-name="Pfad 100" d="M232.344,624.429q-1.152,0-2.578-.137a27.929,27.929,0,0,1-2.908-.439q-1.481-.3-2.88-.712a17.356,17.356,0,0,1-2.551-.961l1.481-5.266q2.633.769,4.992,1.262a24.041,24.041,0,0,0,4.937.494,18.012,18.012,0,0,0,3.128-.219,4.4,4.4,0,0,0,1.919-.768,3.13,3.13,0,0,0,1.042-1.454,15.932,15.932,0,0,0,.6-2.277,14.391,14.391,0,0,0,.274-2.3,2.456,2.456,0,0,0-.274-1.207,2.256,2.256,0,0,0-.933-.85,10.3,10.3,0,0,0-1.838-.713q-1.181-.357-2.99-.85a20.162,20.162,0,0,1-3.976-1.371,9.014,9.014,0,0,1-2.524-1.755,5.531,5.531,0,0,1-1.344-2.2,8.828,8.828,0,0,1-.384-2.687,14.2,14.2,0,0,1,.11-1.729q.108-.905.274-1.892a20.508,20.508,0,0,1,1.317-4.718,7.233,7.233,0,0,1,2.3-2.963,8.97,8.97,0,0,1,3.84-1.509,35.824,35.824,0,0,1,5.98-.411,39.2,39.2,0,0,1,5.02.328,34.2,34.2,0,0,1,5.184,1.1l-1.152,5.65q-2.633-.6-4.965-.933a33.127,33.127,0,0,0-4.636-.329,21.036,21.036,0,0,0-2.935.165,4.338,4.338,0,0,0-1.783.6,2.805,2.805,0,0,0-1.015,1.289,9.819,9.819,0,0,0-.576,2.167,14.305,14.305,0,0,0-.274,2.3,2.544,2.544,0,0,0,.246,1.151,2.195,2.195,0,0,0,.9.878,9.922,9.922,0,0,0,1.777.768q1.119.385,2.868.824a32.738,32.738,0,0,1,4.1,1.343,9.344,9.344,0,0,1,2.65,1.592,4.983,4.983,0,0,1,1.422,2.057,7.845,7.845,0,0,1,.41,2.633,13.283,13.283,0,0,1-.11,1.645q-.111.879-.274,1.92a25.6,25.6,0,0,1-1.258,4.774,7.833,7.833,0,0,1-2.267,3.237,9.656,9.656,0,0,1-3.962,1.865A27.688,27.688,0,0,1,232.344,624.429Z" transform="translate(-87.024 -586.797)" fill="#0b1a26"/>
  <path id="Pfad_101" data-name="Pfad 101" d="M259.225,587.4h6.8l-6.419,36.536h-6.8Z" transform="translate(-89.713 -586.848)" fill="#0b1a26"/>
  <path id="Pfad_102" data-name="Pfad 102" d="M278.524,603.086h14.539l-1.043,5.981H277.483l-2.633,14.866h-6.8l6.473-36.536h22.493l-1.043,5.98H280.226Z" transform="translate(-91.018 -586.848)" fill="#0b1a26"/>
  <path id="Pfad_103" data-name="Pfad 103" d="M312.76,623.932h-6.8l1.92-10.917L300.745,587.4h6.749l4.882,18.488L323.348,587.4h7.68l-16.4,25.948Z" transform="translate(-93.82 -586.848)" fill="#0b1a26"/>
</svg>
